<?xml version="1.0" encoding="UTF-8"?>
<svg id="Capa_1" data-name="Capa 1" xmlns="http://www.w3.org/2000/svg" viewBox="0 0 31.84 31.84">
  <path d="M30.49,11.94h-10.24c-.19,0-.35-.16-.35-.35V1.35c0-.74-.6-1.35-1.35-1.35h-5.27c-.74,0-1.35.6-1.35,1.35v10.24c0,.19-.16.35-.35.35H1.35c-.74,0-1.35.6-1.35,1.35v5.27c0,.74.6,1.35,1.35,1.35h10.24c.19,0,.35.16.35.35v10.24c0,.74.6,1.35,1.35,1.35h5.27c.74,0,1.35-.6,1.35-1.35v-10.24c0-.19.16-.35.35-.35h10.24c.74,0,1.35-.6,1.35-1.35v-5.27c0-.74-.6-1.35-1.35-1.35Z" style="fill: #444; stroke-width: 0px;"/>
</svg>