<?xml version="1.0" encoding="UTF-8"?>
<svg id="Capa_1" data-name="Capa 1" xmlns="http://www.w3.org/2000/svg" viewBox="0 0 29.19 29.19">
  <path d="M14.6,2.74c-3.17,0-6.15,1.23-8.38,3.47s-3.47,5.22-3.47,8.38,1.23,6.15,3.47,8.38c2.24,2.24,5.22,3.47,8.38,3.47s6.15-1.23,8.38-3.47,3.47-5.22,3.47-8.38-1.23-6.15-3.47-8.38c-2.24-2.24-5.22-3.47-8.38-3.47ZM14.6,0h0c8.29,0,14.96,6.91,14.58,15.28-.34,7.43-6.46,13.55-13.89,13.89C6.91,29.56,0,22.88,0,14.6S6.53,0,14.6,0ZM12.77,20.07h3.65v3.65h-3.65v-3.65ZM12.77,5.47h3.65v10.95h-3.65V5.47Z" style="fill: #a66; stroke-width: 0px;"/>
</svg>