<?xml version="1.0" encoding="UTF-8"?>
<svg id="Capa_1" data-name="Capa 1" xmlns="http://www.w3.org/2000/svg" viewBox="0 0 27.02 27.02">
  <path d="M21,.39l-7.24,7.24c-.14.14-.36.14-.5,0L6.02.39c-.53-.53-1.38-.53-1.9,0L.39,4.12c-.53.53-.53,1.38,0,1.9l7.24,7.24c.14.14.14.36,0,.5L.39,21c-.53.53-.53,1.38,0,1.9l3.72,3.72c.53.53,1.38.53,1.9,0l7.24-7.24c.14-.14.36-.14.5,0l7.24,7.24c.53.53,1.38.53,1.9,0l3.72-3.72c.53-.53.53-1.38,0-1.9l-7.24-7.24c-.14-.14-.14-.36,0-.5l7.24-7.24c.53-.53.53-1.38,0-1.9l-3.72-3.72c-.53-.53-1.38-.53-1.9,0Z" style="fill: #e44; stroke-width: 0px;"/>
</svg>
