<?xml version="1.0" encoding="UTF-8"?>
<svg id="Capa_1" data-name="Capa 1" xmlns="http://www.w3.org/2000/svg" viewBox="0 0 29.32 29.32">
  <defs>
    <style>
      .cls-1 {
        fill: #198;
        stroke-width: 0px;
      }
    </style>
  </defs>
  <path class="cls-1" d="M14.66,0C6.56,0,0,6.56,0,14.66s6.56,14.66,14.66,14.66,14.66-6.56,14.66-14.66S22.75,0,14.66,0ZM14.66,26.57c-6.58,0-11.91-5.33-11.91-11.91S8.08,2.75,14.66,2.75s11.91,5.33,11.91,11.91-5.33,11.91-11.91,11.91Z"/>
  <path class="cls-1" d="M8.15,10.21l-.73.73c-.51.51-.51,1.34,0,1.86l6.31,6.31c.51.51,1.34.51,1.86,0l6.31-6.31c.51-.51.51-1.34,0-1.86l-.73-.73c-.51-.51-1.34-.51-1.86,0l-3.72,3.72c-.51.51-1.34.51-1.86,0l-3.72-3.72c-.51-.51-1.34-.51-1.86,0Z"/>
</svg>
