<?xml version="1.0" encoding="UTF-8"?>
<svg id="Capa_1" data-name="Capa 1" xmlns="http://www.w3.org/2000/svg" viewBox="0 0 31.22 32.87">
  <path d="M28.27,9.28H10.58c-1.62,0-2.95,1.33-2.95,2.95v17.69c0,1.62,1.33,2.95,2.95,2.95h17.69c1.62,0,2.95-1.33,2.95-2.95V12.23c0-1.62-1.33-2.95-2.95-2.95ZM28.27,29.92H10.58V12.23h17.69v17.69Z" style="fill: #eee; stroke-width: 0px;"/>
  <path d="M20.64,0H2.95C1.33,0,0,1.33,0,2.95v17.69c0,1.62,1.33,2.95,2.95,2.95h17.69c1.62,0,2.95-1.33,2.95-2.95V2.95c0-1.62-1.33-2.95-2.95-2.95ZM20.64,20.64H2.95V2.95h17.69v17.69Z" style="fill: #eee; stroke-width: 0px;"/>
</svg>