<?xml version="1.0" encoding="UTF-8"?>
<svg id="Capa_1" data-name="Capa 1" xmlns="http://www.w3.org/2000/svg" viewBox="0 0 52.92 27.87">
  <path d="M1.33,0h32.82c.73,0,1.33.59,1.33,1.33v4.95c0,.73-.59,1.33-1.33,1.33H1.33c-.73,0-1.33-.59-1.33-1.33V1.33C0,.59.59,0,1.33,0ZM1.2,10.13h33.06c.66,0,1.2.54,1.2,1.2v5.19c0,.66-.54,1.2-1.2,1.2H1.2c-.66,0-1.2-.54-1.2-1.2v-5.19c0-.66.54-1.2,1.2-1.2ZM1.24,20.27h33c.68,0,1.24.55,1.24,1.24v5.13c0,.68-.55,1.24-1.24,1.24H1.24c-.68,0-1.24-.55-1.24-1.24v-5.13c0-.68.55-1.24,1.24-1.24Z" style="fill: #eee; stroke-width: 0px;"/>
  <path d="M41.15,12.01l4.94,4.94c.43.43,1.13.43,1.56,0l4.94-4.94c.69-.69.2-1.88-.78-1.88h-9.88c-.98,0-1.47,1.19-.78,1.88Z" style="fill: #eee; stroke-width: 0px;"/>
</svg>
