<?xml version="1.0" encoding="UTF-8"?>
<svg id="Capa_1" data-name="Capa 1" xmlns="http://www.w3.org/2000/svg" viewBox="0 0 29.76 29.76">
  <path d="M13.02,20.46h3.72v3.72h-3.72v-3.72ZM20.46,7.44c1.03,0,1.86.83,1.86,1.86v5.58l-5.58,3.72h-3.72v-1.86l5.58-3.72v-1.86h-9.3v-3.72h11.16ZM14.88,2.79c-3.23,0-6.27,1.26-8.55,3.54s-3.54,5.32-3.54,8.55,1.26,6.27,3.54,8.55,5.32,3.54,8.55,3.54,6.27-1.26,8.55-3.54,3.54-5.32,3.54-8.55-1.26-6.27-3.54-8.55-5.32-3.54-8.55-3.54ZM14.88,0h0c8.22,0,14.88,6.66,14.88,14.88s-6.66,14.88-14.88,14.88S0,23.1,0,14.88,6.66,0,14.88,0Z" style="fill: #3a9; stroke-width: 0px;"/>
</svg>